<?xml version="1.0" standalone="no"?>
<!DOCTYPE svg PUBLIC "-//W3C//DTD SVG 20010904//EN"
 "http://www.w3.org/TR/2001/REC-SVG-20010904/DTD/svg10.dtd">
<svg version="1.0" xmlns="http://www.w3.org/2000/svg"
 width="1536.000000pt" height="1536.000000pt" viewBox="0 0 1536.000000 1536.000000"
 preserveAspectRatio="xMidYMid meet">
<metadata>
Created by potrace 1.11, written by Peter Selinger 2001-2013
</metadata>
<g transform="translate(0.000000,1536.000000) scale(0.100000,-0.100000)"
fill="#000000" stroke="none">
<path d="M10708 15355 c-2 -2 -26 -7 -53 -11 -28 -3 -59 -8 -70 -11 -11 -2
-29 -6 -40 -7 -11 -2 -40 -9 -65 -15 -25 -6 -56 -14 -69 -17 -13 -3 -32 -9
-43 -15 -10 -5 -18 -6 -18 -2 0 4 -5 2 -12 -5 -7 -7 -20 -12 -30 -12 -10 0
-26 -4 -36 -9 -9 -6 -46 -21 -82 -35 -128 -49 -468 -209 -480 -226 -3 -4 -21
-15 -40 -25 -101 -51 -337 -228 -445 -332 -55 -54 -145 -152 -145 -158 0 -2
-11 -16 -25 -31 -32 -34 -125 -172 -125 -184 0 -6 -4 -10 -9 -10 -5 0 -13 -10
-17 -22 -4 -13 -14 -34 -23 -47 -8 -13 -16 -31 -17 -39 -2 -8 -6 -18 -11 -21
-4 -3 -9 -13 -11 -21 -2 -8 -10 -28 -17 -45 -15 -33 -52 -145 -61 -185 -6 -31
-11 -58 -23 -135 -9 -59 -7 -240 2 -281 3 -12 8 -37 11 -55 15 -93 66 -217
134 -324 41 -65 208 -241 261 -275 13 -8 29 -20 35 -26 17 -16 128 -90 172
-115 85 -47 164 -88 164 -83 0 2 10 -2 23 -10 24 -16 224 -85 266 -92 14 -3
42 -9 61 -14 19 -5 51 -12 70 -15 19 -3 42 -7 50 -10 72 -18 397 -26 550 -13
41 4 75 8 75 8 0 2 28 7 72 14 50 7 153 30 228 51 33 9 65 18 70 19 6 1 15 4
20 7 6 4 28 12 50 18 22 7 49 16 60 21 11 5 63 29 115 52 109 50 226 114 254
140 11 10 26 18 33 18 8 0 16 7 19 15 4 8 11 15 18 15 6 0 22 10 36 23 14 12
41 34 61 49 39 29 180 168 218 214 46 57 137 200 167 264 91 191 119 315 119
525 -1 110 -4 154 -20 240 -14 82 -55 216 -82 267 -7 15 -12 29 -11 30 8 10
-150 302 -198 365 -13 17 -24 36 -24 41 0 6 -7 12 -15 16 -8 3 -15 10 -15 16
0 10 -18 32 -100 125 -74 82 -193 184 -260 221 -19 10 -37 22 -40 26 -18 24
-253 108 -345 124 -35 6 -332 14 -337 9z"/>
<path d="M5858 14604 c-2 -1 -26 -5 -53 -8 -28 -3 -61 -8 -75 -11 -14 -3 -38
-8 -55 -11 -16 -3 -39 -7 -50 -9 -24 -4 -232 -72 -260 -84 -11 -5 -38 -16 -60
-25 -22 -10 -48 -21 -57 -26 -10 -6 -25 -10 -33 -10 -8 0 -15 -4 -15 -10 0 -5
-9 -10 -20 -10 -11 0 -20 -5 -20 -11 0 -5 -4 -8 -10 -4 -5 3 -27 -6 -50 -20
-22 -14 -40 -22 -40 -19 0 4 -6 1 -13 -5 -8 -6 -42 -26 -78 -44 -336 -175
-625 -441 -786 -722 -54 -96 -106 -213 -117 -267 -3 -13 -12 -47 -20 -77 -8
-30 -18 -84 -21 -120 -4 -36 -9 -73 -11 -83 -3 -9 0 -19 6 -23 7 -4 7 -12 0
-26 -6 -11 -9 -23 -7 -27 3 -4 8 -34 11 -67 16 -147 84 -315 174 -430 42 -54
102 -115 172 -175 14 -12 35 -30 48 -41 12 -10 24 -19 26 -19 2 0 39 -24 82
-53 71 -47 237 -135 267 -141 7 -2 26 -9 42 -15 74 -32 279 -83 380 -97 59 -7
191 -15 260 -15 107 0 310 17 326 26 3 2 28 7 55 11 27 3 53 9 59 12 5 3 21 7
36 9 51 5 275 85 384 137 107 51 222 118 258 150 9 9 19 16 22 16 6 0 8 1 70
52 112 91 249 240 285 308 7 14 16 27 21 30 6 5 92 168 94 180 0 3 11 34 22
70 29 86 40 133 49 200 9 77 11 199 2 213 -3 6 -2 19 3 28 5 10 5 20 1 23 -5
3 -9 24 -10 46 -1 23 -5 47 -9 53 -4 6 -8 20 -10 32 -11 79 -110 348 -134 365
-4 3 -14 21 -23 40 -21 47 -106 185 -136 223 -106 132 -211 247 -227 247 -3 0
-20 12 -38 28 -50 42 -88 67 -97 64 -5 -1 -11 5 -14 13 -4 8 -11 15 -18 15 -6
0 -37 13 -69 30 -31 16 -57 27 -57 23 0 -3 -7 0 -15 7 -8 7 -15 9 -15 6 0 -4
-8 -2 -18 3 -39 21 -184 43 -294 46 -65 1 -119 1 -120 -1z"/>
<path d="M8597 10223 c-2 -1 -45 -5 -97 -9 -108 -8 -145 -11 -145 -14 0 0 -20
-3 -45 -5 -60 -5 -129 -14 -160 -20 -14 -3 -41 -7 -60 -10 -37 -4 -85 -13
-110 -20 -8 -2 -28 -7 -45 -9 -33 -6 -109 -22 -140 -29 -11 -3 -60 -15 -110
-27 -49 -11 -144 -37 -210 -57 -66 -19 -124 -36 -130 -38 -5 -1 -17 -5 -25 -8
-28 -11 -165 -59 -175 -61 -57 -15 -73 -21 -95 -35 -13 -9 -27 -15 -30 -15 -3
1 -15 -2 -28 -7 -13 -5 -26 -9 -28 -9 -3 0 -24 -8 -47 -19 -65 -28 -81 -34
-89 -33 -5 1 -8 -2 -8 -8 0 -5 -9 -10 -20 -10 -11 0 -20 -4 -20 -8 0 -5 -6 -9
-12 -9 -25 0 -434 -199 -533 -259 -30 -18 -55 -31 -55 -29 0 20 -688 -429
-698 -457 -2 -4 -8 -8 -13 -8 -9 0 -252 -190 -324 -253 -16 -14 -41 -36 -55
-47 -114 -97 -510 -480 -510 -494 0 -3 -19 -25 -42 -49 -24 -24 -61 -66 -83
-92 -22 -26 -56 -67 -75 -89 -19 -23 -46 -57 -60 -75 -14 -19 -32 -41 -40 -50
-8 -9 -26 -32 -40 -51 -13 -19 -29 -40 -35 -46 -5 -6 -17 -22 -25 -34 -8 -13
-30 -44 -49 -69 -49 -65 -189 -282 -241 -371 -24 -41 -50 -86 -59 -100 -8 -14
-16 -27 -16 -30 0 -3 -17 -34 -37 -70 -31 -54 -129 -253 -133 -270 -1 -3 -12
-27 -24 -55 -13 -27 -35 -81 -50 -120 -15 -38 -32 -79 -36 -90 -4 -11 -9 -24
-11 -30 -2 -5 -22 -64 -44 -130 -23 -66 -44 -127 -46 -135 -2 -8 -17 -66 -34
-128 -16 -63 -32 -124 -34 -135 -3 -12 -7 -33 -10 -47 -14 -65 -17 -77 -21
-100 -3 -14 -7 -41 -10 -60 -2 -19 -7 -45 -10 -57 -10 -45 -13 -59 -19 -103
-3 -25 -8 -56 -11 -70 -2 -14 -7 -43 -10 -65 -2 -21 -9 -73 -15 -115 -11 -82
-18 -147 -25 -225 -2 -27 -6 -72 -9 -100 -27 -268 -28 -938 -2 -1130 3 -16 7
-64 10 -105 3 -41 8 -84 10 -95 3 -19 13 -84 22 -155 5 -33 8 -54 19 -110 3
-14 7 -39 9 -55 3 -17 7 -42 10 -55 3 -14 8 -36 10 -50 3 -14 7 -34 10 -45 3
-11 12 -49 20 -85 8 -36 20 -83 26 -105 6 -22 12 -47 14 -55 7 -43 116 -380
142 -437 8 -17 14 -34 14 -38 0 -34 218 -486 286 -593 19 -29 34 -54 34 -56 0
-6 86 -138 99 -153 6 -7 11 -17 11 -23 0 -5 3 -10 8 -10 4 0 23 -25 41 -55 19
-30 39 -55 43 -55 4 0 8 -6 8 -14 0 -8 3 -16 8 -18 4 -2 27 -30 52 -63 25 -32
58 -72 74 -87 16 -15 27 -28 24 -28 -15 0 252 -272 362 -370 35 -30 69 -61 76
-67 7 -7 17 -13 23 -13 6 0 11 -4 11 -8 0 -15 328 -252 349 -252 5 0 11 -3 13
-7 4 -9 65 -53 73 -53 3 0 33 -17 68 -38 34 -20 89 -50 122 -67 33 -16 63 -34
66 -38 3 -5 8 -8 10 -7 2 2 45 -17 94 -41 50 -23 95 -44 100 -45 6 -2 66 -25
133 -53 68 -28 134 -51 145 -53 12 -2 24 -6 27 -10 3 -4 17 -9 30 -12 14 -3
48 -13 75 -22 55 -18 74 -23 78 -24 1 0 27 -7 57 -16 30 -9 62 -18 70 -19 8
-2 15 -4 15 -5 0 -1 8 -3 19 -5 10 -2 41 -9 70 -16 28 -7 53 -14 56 -14 10 -3
76 -15 100 -19 14 -2 32 -7 40 -10 8 -3 33 -8 55 -10 22 -3 49 -7 61 -10 12
-2 43 -7 70 -11 27 -3 76 -10 109 -14 33 -5 63 -7 68 -4 4 2 12 1 19 -3 7 -4
30 -9 52 -10 23 -2 66 -5 96 -8 209 -17 332 -21 605 -21 171 0 353 4 405 8
177 14 225 18 265 22 22 3 63 7 90 10 59 5 141 15 164 20 9 1 50 8 91 15 83
13 105 17 136 24 12 2 37 7 55 10 19 3 48 9 64 12 17 4 39 8 50 9 11 2 21 4
23 5 1 2 5 3 10 4 51 12 90 20 105 21 9 2 19 4 22 5 3 1 10 4 15 5 6 1 11 3
13 5 1 1 11 3 22 5 18 3 71 17 115 30 8 2 33 9 55 15 22 6 47 12 55 15 25 6
174 55 190 62 8 4 22 7 30 9 18 2 151 53 232 88 20 9 38 16 41 16 21 0 352
162 454 222 45 26 86 48 92 48 6 0 11 3 11 8 0 4 20 18 45 32 25 14 45 28 45
31 0 4 13 12 29 19 16 6 37 19 48 28 10 9 61 49 113 89 172 130 346 299 449
435 19 27 39 48 43 48 4 0 8 6 8 13 0 8 9 22 20 32 11 10 20 24 20 32 0 7 3
13 8 13 4 0 26 33 50 73 24 39 49 81 55 92 7 11 20 32 30 47 10 16 15 28 12
28 -3 0 3 13 14 29 12 16 21 36 21 44 0 9 4 19 10 22 5 3 14 24 20 45 6 22 15
40 21 40 6 0 8 3 6 8 -3 4 0 18 6 32 5 14 11 30 12 35 2 6 8 28 13 50 22 82
31 198 19 245 -14 55 -20 70 -30 70 -6 0 -8 3 -4 6 15 16 -74 76 -118 79 -17
1 -37 5 -43 9 -6 3 -13 2 -17 -4 -3 -6 -17 -8 -30 -6 -13 2 -26 2 -29 -2 -4
-3 -12 -7 -19 -8 -42 -9 -59 -15 -114 -42 -57 -27 -193 -112 -219 -137 -6 -5
-35 -30 -64 -55 -29 -25 -94 -87 -144 -139 -227 -234 -309 -312 -431 -411 -44
-36 -88 -73 -99 -82 -11 -10 -28 -20 -38 -24 -10 -3 -18 -9 -18 -13 0 -3 -15
-15 -32 -26 -18 -10 -37 -23 -43 -27 -5 -5 -32 -23 -60 -40 -27 -17 -61 -38
-75 -48 -36 -24 -267 -136 -320 -155 -25 -9 -67 -23 -95 -32 -27 -8 -54 -18
-60 -21 -5 -3 -16 -7 -25 -8 -8 -2 -33 -7 -56 -13 -23 -6 -57 -12 -77 -15 -20
-2 -40 -7 -44 -9 -29 -18 -372 -28 -458 -14 -22 4 -58 10 -80 13 -93 14 -265
63 -355 101 -68 30 -215 105 -231 119 -8 8 -18 14 -22 14 -5 0 -87 52 -112 72
-5 5 -35 27 -65 51 -91 69 -100 78 -210 187 -110 110 -152 156 -210 230 -19
25 -38 46 -42 48 -4 2 -8 8 -8 14 0 5 -15 28 -33 51 -96 120 -246 384 -341
602 -77 174 -76 159 -9 181 32 10 60 19 63 19 12 2 160 59 208 81 29 13 57 24
61 24 5 0 22 6 38 14 53 28 108 50 116 48 4 -1 7 2 7 8 0 5 9 10 20 10 11 0
20 5 20 12 0 6 3 9 6 5 6 -5 461 218 474 232 3 3 23 16 45 28 22 11 56 30 75
42 19 12 47 26 63 32 15 6 27 14 27 17 0 4 18 16 40 26 22 11 40 23 40 27 0 4
9 11 21 14 11 4 46 23 77 44 31 20 80 51 107 69 72 47 72 46 165 111 47 32 97
69 112 80 14 12 31 21 37 21 6 0 11 3 11 8 0 4 23 22 50 41 28 19 50 38 50 43
0 5 4 7 9 4 5 -4 11 -3 13 2 1 4 17 18 33 30 62 47 262 210 291 237 6 5 40 35
74 65 35 30 91 80 124 110 88 79 432 426 491 495 28 32 64 73 80 91 17 18 40
46 52 61 22 28 45 56 89 105 13 15 24 30 24 32 0 2 9 15 20 28 11 12 43 52 70
88 28 36 54 70 59 75 9 12 51 72 141 200 76 109 210 322 240 380 5 11 23 43
40 70 17 28 37 67 46 88 9 20 20 37 25 37 5 0 9 5 9 11 0 5 31 74 69 152 63
131 178 403 185 437 1 3 5 11 9 18 5 6 6 12 2 12 -3 0 3 17 14 38 10 20 19 39
19 42 0 3 5 23 11 45 6 22 11 43 11 47 1 4 7 23 16 43 8 19 14 37 14 40 0 3 0
6 1 8 0 1 2 9 4 17 2 8 15 59 29 112 13 53 27 112 30 130 3 18 12 67 20 108
13 67 22 132 32 225 1 17 3 30 4 30 4 0 12 174 12 275 1 101 -7 277 -16 335
-13 91 -18 123 -21 140 -4 21 -32 149 -39 175 -3 8 -11 41 -19 72 -9 31 -21
67 -28 80 -7 13 -12 24 -11 25 2 4 -9 37 -19 55 -5 10 -9 23 -9 29 0 17 -141
303 -151 307 -5 2 -9 8 -9 13 0 6 -5 15 -10 22 -6 7 -29 41 -52 77 -24 36 -48
72 -55 80 -156 195 -227 271 -348 375 -66 57 -77 66 -107 90 -27 22 -194 133
-218 145 -14 7 -27 16 -30 20 -17 25 -445 212 -505 220 -3 0 -23 7 -46 15 -23
9 -51 17 -63 20 -12 2 -41 9 -66 16 -25 6 -56 13 -70 15 -14 3 -34 8 -45 11
-11 3 -29 7 -40 9 -11 1 -45 7 -75 13 -81 15 -158 24 -305 36 -75 7 -473 13
-478 8z m-131 -1014 c252 -13 477 -332 521 -739 3 -30 9 -62 13 -70 8 -17 5
-524 -3 -581 -3 -20 -8 -63 -11 -95 -6 -56 -14 -120 -19 -154 -1 -8 -6 -21
-10 -27 -5 -7 -4 -13 2 -13 7 0 7 -8 2 -22 -5 -13 -11 -41 -15 -63 -3 -22 -8
-53 -12 -70 -3 -16 -7 -39 -8 -50 -2 -11 -6 -27 -9 -35 -2 -8 -10 -42 -17 -75
-6 -33 -21 -96 -31 -140 -11 -44 -22 -87 -24 -95 -2 -8 -20 -69 -40 -135 -19
-66 -38 -130 -40 -142 -3 -12 -10 -35 -17 -50 -6 -16 -12 -30 -13 -33 0 -3
-12 -36 -25 -75 -13 -38 -25 -72 -25 -75 -1 -3 -5 -14 -10 -25 -4 -11 -34 -85
-65 -165 -32 -80 -68 -167 -80 -195 -36 -79 -207 -426 -232 -470 -122 -216
-278 -464 -374 -595 -18 -25 -48 -65 -66 -90 -41 -56 -43 -59 -69 -90 -12 -14
-33 -41 -48 -60 -14 -19 -33 -42 -41 -50 -8 -9 -35 -41 -60 -70 -107 -128
-306 -332 -424 -435 -38 -33 -76 -67 -85 -76 -9 -8 -38 -33 -66 -55 -27 -21
-51 -42 -53 -46 -2 -5 -10 -8 -18 -8 -9 0 -12 -4 -9 -10 3 -5 2 -10 -4 -10 -5
0 -32 -18 -60 -40 -28 -22 -53 -40 -56 -40 -3 0 -11 -5 -18 -10 -64 -54 -72
-59 -78 -47 -14 24 -38 323 -44 547 -2 58 -4 107 -5 110 -1 3 -1 10 0 15 8 30
4 145 -5 145 -7 0 -7 3 0 8 6 4 11 39 12 77 1 75 11 280 13 280 0 0 3 34 5 75
2 41 6 95 9 120 9 67 17 122 21 150 9 56 16 109 20 146 2 21 9 71 15 109 6 39
13 81 15 95 3 25 31 195 39 240 3 14 14 77 25 140 25 137 30 165 47 240 3 14
8 41 10 60 3 19 10 53 15 75 6 22 13 51 15 65 3 14 7 32 10 40 3 8 8 29 11 45
5 36 62 274 70 295 3 8 7 22 8 30 5 23 12 50 26 100 7 25 13 50 14 55 4 15 56
198 63 215 3 8 6 20 7 25 1 6 10 33 20 60 9 28 18 57 20 65 5 21 78 232 108
310 35 91 86 221 97 245 5 11 27 60 50 110 23 49 42 94 43 100 1 5 5 12 8 15
4 3 19 32 34 65 63 133 226 396 294 474 12 13 21 27 21 30 0 11 154 166 205
206 77 61 113 85 128 85 8 0 20 7 27 15 6 8 15 14 18 13 4 -1 14 2 22 5 26 11
125 35 131 31 3 -1 27 -4 55 -5z"/>
</g>
</svg>
