<svg class="sprite" display="none" xmlns="http://www.w3.org/2000/svg">
              <symbol id="radio-on" viewBox="0 0 25 25">
                <path fill-rule="evenodd" clip-rule="evenodd" d="M0 12.5C0 5.597 5.597 0 12.5 0C19.403 0 25 5.597 25 12.5C25 19.403 19.403 25 12.5 25C5.597 25 0 19.403 0 12.5ZM21 12.5C21 7.813 17.187 4 12.5 4C7.813 4 4 7.813 4 12.5C4 17.187 7.813 21 12.5 21C17.187 21 21 17.187 21 12.5Z"/>
                <path d="M12.5 17C14.9853 17 17 14.9853 17 12.5C17 10.0147 14.9853 8 12.5 8C10.0147 8 8 10.0147 8 12.5C8 14.9853 10.0147 17 12.5 17Z"/>
              </symbol>
              <symbol id="radio-off" viewBox="0 0 25 25">
                <path fill-rule="evenodd" clip-rule="evenodd" d="M0 12.5C0 5.597 5.597 0 12.5 0C19.403 0 25 5.597 25 12.5C25 19.403 19.403 25 12.5 25C5.597 25 0 19.403 0 12.5ZM21 12.5C21 7.813 17.187 4 12.5 4C7.813 4 4 7.813 4 12.5C4 17.187 7.813 21 12.5 21C17.187 21 21 17.187 21 12.5Z"/>
              </symbol>
              <symbol id="checkbox-on" viewBox="0 0 25 23">
                <path d="M6.95925 8.48591L4.25684 11.3149L11.6916 19.0979L25.0002 5.16591L22.2988 2.33691L11.6916 13.4389L6.95925 8.48591Z"/>
                <path d="M21 20C21 20.542 20.542 21 20 21H3C2.458 21 2 20.542 2 20V3C2 2.458 2.458 2 3 2H19.908L21.493 0.415C21.041 0.146542 20.5257 0.00329969 20 0H3C1.35 0 0 1.35 0 3V20C0 21.65 1.35 23 3 23H20C21.65 23 23 21.65 23 20V10.171L21 12.171V20Z"/>
              </symbol>
              <symbol id="checkbox-off" viewBox="0 0 23 23">
                <path fill-rule="evenodd" clip-rule="evenodd" d="M3 0H20C21.65 0 23 1.35 23 3V20C23 21.65 21.65 23 20 23H3C1.35 23 0 21.65 0 20V3C0 1.35 1.35 0 3 0ZM21 3C21 2.458 20.542 2 20 2H3C2.458 2 2 2.458 2 3V20C2 20.542 2.458 21 3 21H20C20.542 21 21 20.542 21 20V3Z"/>
              </symbol>
            </svg>
